<?xml version="1.0" encoding="UTF-8" standalone="no"?>
<!DOCTYPE svg PUBLIC "-//W3C//DTD SVG 1.0//EN" "http://www.w3.org/TR/2001/REC-SVG-20010904/DTD/svg10.dtd">
<!-- Generated by Microsoft Visio 11.0, SVG Export, v1.0 App_Fin.svg Page-1 -->
<svg xmlns="http://www.w3.org/2000/svg" xmlns:v="http://schemas.microsoft.com/visio/2003/SVGExtensions/" width="8.26772in"
		height="11.6929in" viewBox="0 0 595.276 841.89" xml:space="preserve" color-interpolation-filters="sRGB" class="st16">
	<v:documentProperties v:langID="1033" v:viewMarkup="false">
		<v:userDefs>
			<v:ud v:nameU="msvNoAutoConnect" v:val="VT0(1):26"/>
		</v:userDefs>
	</v:documentProperties>

	<style type="text/css">
	<![CDATA[
		.st1 {fill:#96afcf;stroke:#000000;stroke-linecap:round;stroke-linejoin:round;stroke-width:0.24}
		.st2 {fill:#ff0000;font-family:Arial;font-size:1.00001em}
		.st3 {fill:#dde2cd;stroke:#000000;stroke-linecap:round;stroke-linejoin:round;stroke-width:0.24}
		.st4 {fill:#ff0000;font-family:Calibri;font-size:1.00001em}
		.st5 {fill:#ffffff;stroke:#000000;stroke-linecap:round;stroke-linejoin:round;stroke-width:0.24}
		.st6 {fill:#000000;font-family:Calibri;font-size:0.666664em}
		.st7 {stroke:#000000;stroke-linecap:round;stroke-linejoin:round;stroke-width:0.24}
		.st8 {font-size:1em}
		.st9 {marker-end:url(#mrkr4-24);marker-start:url(#mrkr10-22);stroke:#000000;stroke-linecap:round;stroke-linejoin:round;stroke-width:0.24}
		.st10 {fill:#000000;fill-opacity:1;stroke:#000000;stroke-opacity:1;stroke-width:0.08695652173913}
		.st11 {fill:none;stroke:none;stroke-linecap:round;stroke-linejoin:round;stroke-width:0.72}
		.st12 {fill:#000000;font-family:Calibri;font-size:1.00001em}
		.st13 {fill:#edcdcb;stroke:#000000;stroke-linecap:round;stroke-linejoin:round;stroke-width:0.24}
		.st14 {fill:#000000;font-family:Arial;font-size:0.666664em}
		.st15 {fill:#f1eef4;stroke:#000000;stroke-linecap:round;stroke-linejoin:round;stroke-width:0.24}
		.st16 {fill:none;fill-rule:evenodd;font-size:12;overflow:visible;stroke-linecap:square;stroke-miterlimit:3}
	]]>
	</style>

	<defs id="Markers">
		<g id="lend10">
			<path
					d="M 0 0.75 C -0.414214 0.75 -0.75 0.414214 -0.75 -0 -0.75 -0.414214 -0.414214 -0.75 -0 -0.75 0.414214 -0.75 0.75 -0.414214 0.75 -0 0.75 0.414214 0.414214 0.75 0 0.75 Z "
					style="stroke:none"/>
		</g>
		<marker id="mrkr10-22" class="st10" v:arrowType="10" v:arrowSize="2" v:setback="7.125" refX="7.125" orient="auto"
				markerUnits="strokeWidth">
			<use xlink:href="#lend10" transform="scale(11.5) "/>
		</marker>
		<g id="lend4">
			<path d="M 2 1 L -0 0 L 2 -1 L 2 1 " style="stroke:none"/>
		</g>
		<marker id="mrkr4-24" class="st10" v:arrowType="4" v:arrowSize="2" v:setback="23" refX="-23" orient="auto"
				markerUnits="strokeWidth">
			<use xlink:href="#lend4" transform="scale(-11.5,-11.5) "/>
		</marker>
	</defs>
	<g v:mID="0" v:index="1" v:groupContext="foregroundPage">
		<title>Page-1</title>
		<v:pageProperties v:drawingScale="0.0393701" v:pageScale="0.0393701" v:drawingUnits="24" v:shadowOffsetX="8.50394"
				v:shadowOffsetY="-8.50394"/>
		<v:layer v:name="Annotations" v:index="0"/>
		<g id="shape3-1" v:mID="3" v:groupContext="shape" transform="translate(138.898,-538.583)">
			<title>Rounded rectangle.3</title>
			<desc>Kernel Space</desc>
			<v:userDefs>
				<v:ud v:nameU="visVersion" v:val="VT0(12):26"/>
			</v:userDefs>
			<v:textBlock v:margins="rect(4,4,4,4)" v:tabSpace="42.5197"/>
			<v:textRect cx="136.063" cy="778.11" width="272.13" height="127.559"/>
			<path d="M257.95 841.89 A14.1733 14.1733 -180 0 0 272.13 827.72 L272.13 728.5 A14.1733 14.1733 -180 0 0 257.95 714.33
						 L14.17 714.33 A14.1733 14.1733 -180 0 0 -0 728.5 L0 827.72 A14.1733 14.1733 -180 0 0 14.17 841.89 L257.95
						 841.89 Z" class="st1"/>
			<text x="4" y="781.71" class="st2" v:langID="1033"><v:paragraph/><v:tabList/>Kernel Space</text>		</g>
		<g id="shape2-4" v:mID="2" v:groupContext="shape" transform="translate(141.732,-717.165)">
			<title>Rounded rectangle</title>
			<desc>User Space</desc>
			<v:userDefs>
				<v:ud v:nameU="visVersion" v:val="VT0(12):26"/>
			</v:userDefs>
			<v:textBlock v:margins="rect(4,4,4,4)" v:tabSpace="42.5197"/>
			<v:textRect cx="134.646" cy="789.449" width="269.3" height="104.882"/>
			<path d="M255.12 841.89 A14.1733 14.1733 -180 0 0 269.29 827.72 L269.29 751.18 A14.1733 14.1733 -180 0 0 255.12 737.01
						 L14.17 737.01 A14.1733 14.1733 -180 0 0 0 751.18 L0 827.72 A14.1733 14.1733 -180 0 0 14.17 841.89 L255.12
						 841.89 Z" class="st3"/>
			<text x="4" y="793.05" class="st4" v:langID="1033"><v:paragraph/><v:tabList/>User Space</text>		</g>
		<g id="shape1-7" v:mID="1" v:groupContext="shape" transform="translate(248.031,-425.197)">
			<title>Cloud</title>
			<desc>Internet</desc>
			<v:userDefs>
				<v:ud v:nameU="visVersion" v:val="VT0(12):26"/>
			</v:userDefs>
			<v:textBlock v:margins="rect(1,1,1,1)" v:tabSpace="42.5197"/>
			<v:textRect cx="49.6063" cy="806.457" width="99.22" height="70.8661"/>
			<path d="M2.15 806.53 A4.11071 4.37684 0 0 1 3.55 798.49 A5.58712 5.94883 0 0 1 8.84 789.46 A6.41543 6.83077 0 0 1 17.91
						 781.74 A4.37825 4.6617 0 0 1 25.82 777.73 A4.80773 5.11898 0 0 1 34.27 775.06 A9.49887 10.1138 0 0 1 47.47
						 773.38 A2.83791 3.02163 0 0 1 53.02 773.47 A3.16289 2.80085 38.87 0 1 58.9 773.36 A2.88433 2.03141 9.83
						 0 1 63.97 775.06 A5.38682 3.78202 13.74 0 1 74.29 777.75 A3.32082 2.23215 138.75 0 1 77.96 780.35 A5.45372
						 5.80679 0 0 1 86.69 786.63 A6.04052 4.24731 12.33 0 1 90.22 792.02 A7.71029 5.44445 176.96 0 1 95.43 801
						 A4.4562 3.14752 0 0 1 96.09 806.53 A2.22409 2.36808 0 1 1 95.73 810.65 A4.78543 5.09524 0 0 1 92.59 819.09
						 A3.15768 2.6659 177.55 1 1 89.39 823.6 A6.41543 6.83077 0 0 1 80.32 831.33 A5.01636 3.54317 0 0 1 72.42
						 835.34 A3.98821 4.24641 0 0 1 64.78 837.63 A4.16392 3.38295 7.87 0 1 56.84 839.26 A3.9331 2.77804 0 0 1
						 49.12 839.71 A5.03056 3.5532 0 0 1 39.54 839.01 A4.596 3.22656 14.33 0 1 31.51 835.56 A3.98256 2.41128 11.15
						 1 1 24.43 833.04 A4.70418 5.00874 0 0 1 17.81 827.27 A6.42064 6.83632 0 0 1 9.98 827.27 A11.2897 7.95527
						 8.91 0 1 5.65 819.09 A4.44141 4.72895 0 0 1 1.58 810.93 A4.37974 3.07437 14.02 0 1 2.15 806.53 Z"
					class="st5"/>
			<text x="36.34" y="808.86" class="st6" v:langID="1033"><v:paragraph v:horizAlign="1"/><v:tabList/>Internet</text>		</g>
		<g id="shape6-10" v:mID="6" v:groupContext="shape" transform="translate(1097.01,107.717) rotate(90)">
			<title>Data store</title>
			<desc>Swift Socket (Data transfer)</desc>
			<v:userDefs>
				<v:ud v:nameU="visVersion" v:val="VT0(12):26"/>
			</v:userDefs>
			<v:textBlock v:margins="rect(1,1,1,1)" v:tabSpace="42.5197"/>
			<v:textRect cx="41.1024" cy="827.717" width="82.21" height="28.3465"/>
			<path d="M0 841.89 L82.2 841.89" class="st7"/>
			<path d="M0 813.54 L82.2 813.54" class="st7"/>
			<text x="21.24" y="825.32" class="st6" v:langID="1033"><v:paragraph v:horizAlign="1"/><v:tabList/>Swift Socket<v:newlineChar/><tspan
						x="17.22" dy="1.2em" class="st8">(</tspan>Data transfer)</text>		</g>
		<g id="shape10-16" v:mID="10" v:groupContext="shape" transform="translate(481.803,1024.39) rotate(165.379)">
			<title>Pointer (1-D)</title>
			<v:userDefs>
				<v:ud v:nameU="visVersion" v:val="VT0(12):26"/>
			</v:userDefs>
			<path d="M1.71 841.89 L2.07 841.89 L28.17 841.89" class="st9"/>
		</g>
		<g id="shape11-25" v:mID="11" v:groupContext="shape" transform="translate(1078.58,238.11) rotate(90)">
			<title>Pointer (1-D).11</title>
			<v:userDefs>
				<v:ud v:nameU="visVersion" v:val="VT0(12):26"/>
			</v:userDefs>
			<path d="M1.71 841.89 L2.07 841.89 L2.98 841.89" class="st9"/>
		</g>
		<g id="shape12-32" v:mID="12" v:groupContext="shape" transform="translate(777.133,-350.722) rotate(39.9364)">
			<title>Pointer (1-D).12</title>
			<v:userDefs>
				<v:ud v:nameU="visVersion" v:val="VT0(12):26"/>
			</v:userDefs>
			<path d="M1.71 841.89 L2.07 841.89 L73.96 841.89" class="st9"/>
		</g>
		<g id="shape13-39" v:mID="13" v:groupContext="shape" transform="translate(1078.58,266.457) rotate(90)">
			<title>Pointer (1-D).13</title>
			<v:userDefs>
				<v:ud v:nameU="visVersion" v:val="VT0(12):26"/>
			</v:userDefs>
			<path d="M1.71 841.89 L2.07 841.89 L2.98 841.89" class="st9"/>
		</g>
		<g id="shape14-46" v:mID="14" v:groupContext="shape" transform="translate(1193.39,107.717) rotate(90)">
			<title>Data store.14</title>
			<desc>UDP Socket (Information update)</desc>
			<v:userDefs>
				<v:ud v:nameU="visVersion" v:val="VT0(12):26"/>
			</v:userDefs>
			<v:textBlock v:margins="rect(1,1,1,1)" v:tabSpace="42.5197"/>
			<v:textRect cx="41.1024" cy="827.717" width="82.21" height="28.3465"/>
			<path d="M0 841.89 L82.2 841.89" class="st7"/>
			<path d="M0 813.54 L82.2 813.54" class="st7"/>
			<text x="22.32" y="825.32" class="st6" v:langID="1033"><v:paragraph v:horizAlign="1"/><v:tabList/>UDP Socket<v:newlineChar/><tspan
						x="6.81" dy="1.2em" class="st8">(</tspan>Information update)</text>		</g>
		<g id="shape19-52" v:mID="19" v:groupContext="shape" transform="translate(1206.14,209.764) rotate(90)">
			<title>Pointer (1-D).19</title>
			<v:userDefs>
				<v:ud v:nameU="visVersion" v:val="VT0(12):26"/>
			</v:userDefs>
			<path d="M1.71 841.89 L2.07 841.89 L2.98 841.89" class="st9"/>
		</g>
		<g id="shape20-59" v:mID="20" v:groupContext="shape" transform="translate(1206.14,238.11) rotate(90)">
			<title>Pointer (1-D).20</title>
			<v:userDefs>
				<v:ud v:nameU="visVersion" v:val="VT0(12):26"/>
			</v:userDefs>
			<path d="M1.71 841.89 L2.07 841.89 L2.98 841.89" class="st9"/>
		</g>
		<g id="shape21-66" v:mID="21" v:groupContext="shape" transform="translate(1206.14,266.457) rotate(90)">
			<title>Pointer (1-D).21</title>
			<v:userDefs>
				<v:ud v:nameU="visVersion" v:val="VT0(12):26"/>
			</v:userDefs>
			<path d="M1.71 841.89 L2.07 841.89 L2.98 841.89" class="st9"/>
		</g>
		<g id="shape22-73" v:mID="22" v:groupContext="shape" transform="translate(876.186,963.161) rotate(142.549)">
			<title>Pointer (1-D).22</title>
			<v:userDefs>
				<v:ud v:nameU="visVersion" v:val="VT0(12):26"/>
			</v:userDefs>
			<path d="M1.71 841.89 L2.07 841.89 L78.39 841.89" class="st9"/>
		</g>
		<g id="shape27-80" v:mID="27" v:groupContext="shape" transform="translate(1145.2,266.457) rotate(90)">
			<title>Pointer (1-D).27</title>
			<v:userDefs>
				<v:ud v:nameU="visVersion" v:val="VT0(12):26"/>
			</v:userDefs>
			<path d="M1.71 841.89 L2.07 841.89 L2.98 841.89" class="st9"/>
		</g>
		<g id="shape28-87" v:mID="28" v:groupContext="shape" transform="translate(1143.78,238.11) rotate(90)">
			<title>Pointer (1-D).28</title>
			<v:userDefs>
				<v:ud v:nameU="visVersion" v:val="VT0(12):26"/>
			</v:userDefs>
			<path d="M1.71 841.89 L2.07 841.89 L2.98 841.89" class="st9"/>
		</g>
		<g id="shape29-94" v:mID="29" v:groupContext="shape" transform="translate(481.803,-604.863) rotate(14.6209)">
			<title>Pointer (1-D).29</title>
			<v:userDefs>
				<v:ud v:nameU="visVersion" v:val="VT0(12):26"/>
			</v:userDefs>
			<path d="M1.71 841.89 L2.07 841.89 L28.17 841.89" class="st9"/>
		</g>
		<g id="shape30-101" v:mID="30" v:groupContext="shape" v:layerMember="0" transform="translate(262.205,-602.362)">
			<title>12pt. text</title>
			<desc>…</desc>
			<v:userDefs>
				<v:ud v:nameU="AntiScale" v:val="VT0(1):26"/>
				<v:ud v:nameU="AutoWidth" v:val="VT0(0.19685039370079):24"/>
				<v:ud v:nameU="WidthIncrement" v:val="VT0(0.098425196850394):24"/>
				<v:ud v:nameU="visVersion" v:val="VT0(12):26"/>
			</v:userDefs>
			<v:textBlock v:margins="rect(0,0,0,0)" v:tabSpace="42.5197"/>
			<v:textRect cx="7.08661" cy="834.803" width="14.18" height="14.1732"/>
			<rect x="0" y="827.717" width="14.1732" height="14.1732" class="st11"/>
			<text x="2.94" y="838.4" class="st12" v:langID="1033"><v:paragraph v:horizAlign="1"/><v:tabList/>…</text>		</g>
		<g id="shape32-104" v:mID="32" v:groupContext="shape" v:layerMember="0" transform="translate(262.205,-574.016)">
			<title>12pt. text.32</title>
			<desc>…</desc>
			<v:userDefs>
				<v:ud v:nameU="AntiScale" v:val="VT0(1):26"/>
				<v:ud v:nameU="AutoWidth" v:val="VT0(0.19685039370079):24"/>
				<v:ud v:nameU="WidthIncrement" v:val="VT0(0.098425196850394):24"/>
				<v:ud v:nameU="visVersion" v:val="VT0(12):26"/>
			</v:userDefs>
			<v:textBlock v:margins="rect(0,0,0,0)" v:tabSpace="42.5197"/>
			<v:textRect cx="7.08661" cy="834.803" width="14.18" height="14.1732"/>
			<rect x="0" y="827.717" width="14.1732" height="14.1732" class="st11"/>
			<text x="2.94" y="838.4" class="st12" v:langID="1033"><v:paragraph v:horizAlign="1"/><v:tabList/>…</text>		</g>
		<g id="shape33-107" v:mID="33" v:groupContext="shape" transform="translate(1140.87,364.718) rotate(94.7636)">
			<title>Pointer (1-D).33</title>
			<v:userDefs>
				<v:ud v:nameU="visVersion" v:val="VT0(12):26"/>
			</v:userDefs>
			<path d="M1.71 841.89 L2.07 841.89 L45.68 841.89" class="st9"/>
		</g>
		<g id="shape31-114" v:mID="31" v:groupContext="shape" v:layerMember="0" transform="translate(262.205,-545.669)">
			<title>12pt. text.31</title>
			<desc>…</desc>
			<v:userDefs>
				<v:ud v:nameU="AntiScale" v:val="VT0(1):26"/>
				<v:ud v:nameU="AutoWidth" v:val="VT0(0.19685039370079):24"/>
				<v:ud v:nameU="WidthIncrement" v:val="VT0(0.098425196850394):24"/>
				<v:ud v:nameU="visVersion" v:val="VT0(12):26"/>
			</v:userDefs>
			<v:textBlock v:margins="rect(0,0,0,0)" v:tabSpace="42.5197"/>
			<v:textRect cx="7.08661" cy="834.803" width="14.18" height="14.1732"/>
			<rect x="0" y="827.717" width="14.1732" height="14.1732" class="st11"/>
			<text x="2.94" y="838.4" class="st12" v:langID="1033"><v:paragraph v:horizAlign="1"/><v:tabList/>…</text>		</g>
		<g id="shape34-117" v:mID="34" v:groupContext="shape" transform="translate(218.268,-734.173)">
			<title>Rounded rectangle.34</title>
			<desc>Swift Library</desc>
			<v:userDefs>
				<v:ud v:nameU="visVersion" v:val="VT0(12):26"/>
			</v:userDefs>
			<v:textBlock v:margins="rect(4,4,4,4)" v:tabSpace="42.5197"/>
			<v:textRect cx="89.2913" cy="826.299" width="178.59" height="31.1811"/>
			<path d="M164.41 841.89 A14.1733 14.1733 -180 0 0 178.58 827.72 L178.58 824.88 A14.1733 14.1733 -180 0 0 164.41 810.71
						 L14.17 810.71 A14.1733 14.1733 -180 0 0 0 824.88 L0 827.72 A14.1733 14.1733 -180 0 0 14.17 841.89 L164.41
						 841.89 Z" class="st13"/>
			<text x="67.29" y="828.7" class="st14" v:langID="1033"><v:paragraph v:horizAlign="1"/><v:tabList/>Swift Library</text>		</g>
		<g id="shape23-120" v:mID="23" v:groupContext="shape" transform="translate(218.268,-779.528)">
			<title>Rounded rectangle.23</title>
			<desc>Application which uses SWIFT Library</desc>
			<v:userDefs>
				<v:ud v:nameU="visVersion" v:val="VT0(12):26"/>
			</v:userDefs>
			<v:textBlock v:margins="rect(4,4,4,4)" v:tabSpace="42.5197"/>
			<v:textRect cx="89.2913" cy="826.299" width="178.59" height="31.1811"/>
			<path d="M164.41 841.89 A14.1733 14.1733 -180 0 0 178.58 827.72 L178.58 824.88 A14.1733 14.1733 -180 0 0 164.41 810.71
						 L14.17 810.71 A14.1733 14.1733 -180 0 0 0 824.88 L0 827.72 A14.1733 14.1733 -180 0 0 14.17 841.89 L164.41
						 841.89 Z" class="st15"/>
			<text x="28.94" y="828.7" class="st6" v:langID="1033"><v:paragraph v:horizAlign="1"/><v:tabList/>Application which uses SWIFT Library</text>		</g>
		<g id="shape35-123" v:mID="35" v:groupContext="shape" transform="translate(1149.45,62.3622) rotate(90)">
			<title>Pointer (1-D).35</title>
			<v:userDefs>
				<v:ud v:nameU="visVersion" v:val="VT0(12):26"/>
			</v:userDefs>
			<path d="M1.71 841.89 L2.07 841.89 L8.65 841.89" class="st9"/>
		</g>
		<g id="shape36-130" v:mID="36" v:groupContext="shape" transform="translate(212.598,-632.126)">
			<title>Rounded rectangle.36</title>
			<desc>Swift Transport Layer</desc>
			<v:userDefs>
				<v:ud v:nameU="visVersion" v:val="VT0(12):26"/>
			</v:userDefs>
			<v:textBlock v:margins="rect(4,4,4,4)" v:tabSpace="42.5197"/>
			<v:textRect cx="56.6929" cy="831.969" width="113.39" height="19.8425"/>
			<path d="M103.46 841.89 A9.92134 9.92134 -180 0 0 113.39 831.97 A9.92134 9.92134 -180 0 0 103.46 822.05 L9.92 822.05
						 A9.92134 9.92134 -180 0 0 0 831.97 A9.92134 9.92134 -180 0 0 9.92 841.89 L103.46 841.89 Z" class="st15"/>
			<text x="48.52" y="829.57" class="st6" v:langID="1033"><v:paragraph v:horizAlign="1"/><v:tabList/>Swift <v:newlineChar/><tspan
						x="31.12" dy="1.2em" class="st8">Transport Layer </tspan> </text>		</g>
		<g id="shape37-134" v:mID="37" v:groupContext="shape" transform="translate(212.598,-603.78)">
			<title>Rounded rectangle.37</title>
			<desc>IP 1</desc>
			<v:userDefs>
				<v:ud v:nameU="visVersion" v:val="VT0(12):26"/>
			</v:userDefs>
			<v:textBlock v:margins="rect(4,4,4,4)" v:tabSpace="42.5197"/>
			<v:textRect cx="24.0945" cy="831.969" width="48.19" height="19.8425"/>
			<path d="M38.27 841.89 A9.92134 9.92134 -180 0 0 48.19 831.97 A9.92134 9.92134 -180 0 0 38.27 822.05 L9.92 822.05 A9.92134
						 9.92134 -180 0 0 0 831.97 A9.92134 9.92134 -180 0 0 9.92 841.89 L38.27 841.89 Z" class="st15"/>
			<text x="18.09" y="834.37" class="st6" v:langID="1033"><v:paragraph v:horizAlign="1"/><v:tabList/>IP 1</text>		</g>
		<g id="shape38-137" v:mID="38" v:groupContext="shape" transform="translate(212.598,-547.087)">
			<title>Rounded rectangle.38</title>
			<desc>Physical Layer 1</desc>
			<v:userDefs>
				<v:ud v:nameU="visVersion" v:val="VT0(12):26"/>
			</v:userDefs>
			<v:textBlock v:margins="rect(4,4,4,4)" v:tabSpace="42.5197"/>
			<v:textRect cx="24.0945" cy="831.969" width="48.19" height="19.8425"/>
			<path d="M38.27 841.89 A9.92134 9.92134 -180 0 0 48.19 831.97 A9.92134 9.92134 -180 0 0 38.27 822.05 L9.92 822.05 A9.92134
						 9.92134 -180 0 0 0 831.97 A9.92134 9.92134 -180 0 0 9.92 841.89 L38.27 841.89 Z" class="st15"/>
			<text x="11.11" y="829.57" class="st6" v:langID="1033"><v:paragraph v:horizAlign="1"/><v:tabList/>Physical <tspan
						x="12.37" dy="1.2em" class="st8">Layer </tspan>1</text>		</g>
		<g id="shape39-141" v:mID="39" v:groupContext="shape" transform="translate(212.598,-575.433)">
			<title>Rounded rectangle.39</title>
			<desc>Data Link 1</desc>
			<v:userDefs>
				<v:ud v:nameU="visVersion" v:val="VT0(12):26"/>
			</v:userDefs>
			<v:textBlock v:margins="rect(4,4,4,4)" v:tabSpace="42.5197"/>
			<v:textRect cx="24.0945" cy="831.969" width="48.19" height="19.8425"/>
			<path d="M38.27 841.89 A9.92134 9.92134 -180 0 0 48.19 831.97 A9.92134 9.92134 -180 0 0 38.27 822.05 L9.92 822.05 A9.92134
						 9.92134 -180 0 0 0 831.97 A9.92134 9.92134 -180 0 0 9.92 841.89 L38.27 841.89 Z" class="st15"/>
			<text x="6.11" y="834.37" class="st6" v:langID="1033"><v:paragraph v:horizAlign="1"/><v:tabList/>Data Link 1</text>		</g>
		<g id="shape7-144" v:mID="7" v:groupContext="shape" transform="translate(277.795,-575.433)">
			<title>Rounded rectangle.7</title>
			<desc>Data Link N</desc>
			<v:userDefs>
				<v:ud v:nameU="visVersion" v:val="VT0(12):26"/>
			</v:userDefs>
			<v:textBlock v:margins="rect(4,4,4,4)" v:tabSpace="42.5197"/>
			<v:textRect cx="24.0945" cy="831.969" width="48.19" height="19.8425"/>
			<path d="M38.27 841.89 A9.92134 9.92134 -180 0 0 48.19 831.97 A9.92134 9.92134 -180 0 0 38.27 822.05 L9.92 822.05 A9.92134
						 9.92134 -180 0 0 0 831.97 A9.92134 9.92134 -180 0 0 9.92 841.89 L38.27 841.89 Z" class="st15"/>
			<text x="5.55" y="834.37" class="st6" v:langID="1033"><v:paragraph v:horizAlign="1"/><v:tabList/>Data Link N</text>		</g>
		<g id="shape8-147" v:mID="8" v:groupContext="shape" transform="translate(277.795,-603.78)">
			<title>Rounded rectangle.8</title>
			<desc>IP N</desc>
			<v:userDefs>
				<v:ud v:nameU="visVersion" v:val="VT0(12):26"/>
			</v:userDefs>
			<v:textBlock v:margins="rect(4,4,4,4)" v:tabSpace="42.5197"/>
			<v:textRect cx="24.0945" cy="831.969" width="48.19" height="19.8425"/>
			<path d="M38.27 841.89 A9.92134 9.92134 -180 0 0 48.19 831.97 A9.92134 9.92134 -180 0 0 38.27 822.05 L9.92 822.05 A9.92134
						 9.92134 -180 0 0 0 831.97 A9.92134 9.92134 -180 0 0 9.92 841.89 L38.27 841.89 Z" class="st15"/>
			<text x="17.53" y="834.37" class="st6" v:langID="1033"><v:paragraph v:horizAlign="1"/><v:tabList/>IP N</text>		</g>
		<g id="shape9-150" v:mID="9" v:groupContext="shape" transform="translate(277.795,-547.087)">
			<title>Rounded rectangle.9</title>
			<desc>Physical Layer 1</desc>
			<v:userDefs>
				<v:ud v:nameU="visVersion" v:val="VT0(12):26"/>
			</v:userDefs>
			<v:textBlock v:margins="rect(4,4,4,4)" v:tabSpace="42.5197"/>
			<v:textRect cx="24.0945" cy="831.969" width="48.19" height="19.8425"/>
			<path d="M38.27 841.89 A9.92134 9.92134 -180 0 0 48.19 831.97 A9.92134 9.92134 -180 0 0 38.27 822.05 L9.92 822.05 A9.92134
						 9.92134 -180 0 0 0 831.97 A9.92134 9.92134 -180 0 0 9.92 841.89 L38.27 841.89 Z" class="st15"/>
			<text x="11.11" y="829.57" class="st6" v:langID="1033"><v:paragraph v:horizAlign="1"/><v:tabList/>Physical <tspan
						x="12.37" dy="1.2em" class="st8">Layer </tspan>1</text>		</g>
		<g id="shape5-154" v:mID="5" v:groupContext="shape" transform="translate(331.654,-632.126)">
			<title>Rounded rectangle.5</title>
			<desc>UDP Transport Layer</desc>
			<v:userDefs>
				<v:ud v:nameU="visVersion" v:val="VT0(12):26"/>
			</v:userDefs>
			<v:textBlock v:margins="rect(4,4,4,4)" v:tabSpace="42.5197"/>
			<v:textRect cx="32.5984" cy="831.969" width="65.2" height="19.8425"/>
			<path d="M55.28 841.89 A9.92134 9.92134 -180 0 0 65.2 831.97 A9.92134 9.92134 -180 0 0 55.28 822.05 L9.92 822.05 A9.92134
						 9.92134 -180 0 0 0 831.97 A9.92134 9.92134 -180 0 0 9.92 841.89 L55.28 841.89 Z" class="st15"/>
			<text x="25.5" y="829.57" class="st6" v:langID="1033"><v:paragraph v:horizAlign="1"/><v:tabList/>UDP <v:newlineChar/><tspan
						x="7.03" dy="1.2em" class="st8">Transport Layer </tspan> </text>		</g>
		<g id="shape15-158" v:mID="15" v:groupContext="shape" transform="translate(331.654,-575.433)">
			<title>Rounded rectangle.15</title>
			<desc>Data Link</desc>
			<v:userDefs>
				<v:ud v:nameU="visVersion" v:val="VT0(12):26"/>
			</v:userDefs>
			<v:textBlock v:margins="rect(4,4,4,4)" v:tabSpace="42.5197"/>
			<v:textRect cx="32.5984" cy="831.969" width="65.2" height="19.8425"/>
			<path d="M55.28 841.89 A9.92134 9.92134 -180 0 0 65.2 831.97 A9.92134 9.92134 -180 0 0 55.28 822.05 L9.92 822.05 A9.92134
						 9.92134 -180 0 0 0 831.97 A9.92134 9.92134 -180 0 0 9.92 841.89 L55.28 841.89 Z" class="st15"/>
			<text x="17.54" y="834.37" class="st6" v:langID="1033"><v:paragraph v:horizAlign="1"/><v:tabList/>Data Link</text>		</g>
		<g id="shape24-161" v:mID="24" v:groupContext="shape" transform="translate(331.654,-603.78)">
			<title>Rounded rectangle.24</title>
			<desc>IP</desc>
			<v:userDefs>
				<v:ud v:nameU="visVersion" v:val="VT0(12):26"/>
			</v:userDefs>
			<v:textBlock v:margins="rect(4,4,4,4)" v:tabSpace="42.5197"/>
			<v:textRect cx="32.5984" cy="831.969" width="65.2" height="19.8425"/>
			<path d="M55.28 841.89 A9.92134 9.92134 -180 0 0 65.2 831.97 A9.92134 9.92134 -180 0 0 55.28 822.05 L9.92 822.05 A9.92134
						 9.92134 -180 0 0 0 831.97 A9.92134 9.92134 -180 0 0 9.92 841.89 L55.28 841.89 Z" class="st15"/>
			<text x="29.52" y="834.37" class="st6" v:langID="1033"><v:paragraph v:horizAlign="1"/><v:tabList/>IP</text>		</g>
		<g id="shape16-164" v:mID="16" v:groupContext="shape" transform="translate(331.654,-547.087)">
			<title>Rounded rectangle.16</title>
			<desc>Physical Layer</desc>
			<v:userDefs>
				<v:ud v:nameU="visVersion" v:val="VT0(12):26"/>
			</v:userDefs>
			<v:textBlock v:margins="rect(4,4,4,4)" v:tabSpace="42.5197"/>
			<v:textRect cx="32.5984" cy="831.969" width="65.2" height="19.8425"/>
			<path d="M55.28 841.89 A9.92134 9.92134 -180 0 0 65.2 831.97 A9.92134 9.92134 -180 0 0 55.28 822.05 L9.92 822.05 A9.92134
						 9.92134 -180 0 0 0 831.97 A9.92134 9.92134 -180 0 0 9.92 841.89 L55.28 841.89 Z" class="st15"/>
			<text x="9.92" y="834.37" class="st6" v:langID="1033"><v:paragraph v:horizAlign="1"/><v:tabList/>Physical Layer</text>		</g>
	</g>
</svg>
